<?xml version="1.0" encoding="utf-8"?>
<!-- Generator: Adobe Illustrator 19.1.0, SVG Export Plug-In . SVG Version: 6.00 Build 0)  -->
<!DOCTYPE svg PUBLIC "-//W3C//DTD SVG 1.1//EN" "http://www.w3.org/Graphics/SVG/1.1/DTD/svg11.dtd">
<svg version="1.1" id="Layer_1" xmlns="http://www.w3.org/2000/svg" xmlns:xlink="http://www.w3.org/1999/xlink" x="0px" y="0px"
	 viewBox="0 0 143 50" style="enable-background:new 0 0 143 50;" xml:space="preserve">
<style type="text/css">
	.st0{fill:#58606C;}
	.st1{fill:url(#SVGID_1_);}
	.st2{fill:none;}
</style>
<g>
	<g>
		<path class="st0" d="M4.2,22.8H0v12.2h4.2c3.5,0,6.1-2.6,6.1-6.1S7.7,22.8,4.2,22.8z M4.2,33.2H1.7v-8.7h2.5
			c2.5,0,4.3,1.8,4.3,4.3S6.7,33.2,4.2,33.2z"/>
		<path class="st0" d="M18.5,22.8l-5.6,12l-0.1,0.1h1.9l1-2.1H23l1,2.1h1.9l-5.7-12.2H18.5z M22.2,31.1h-5.7l2.8-6.1L22.2,31.1z"/>
		<rect x="29.2" y="22.8" class="st0" width="1.7" height="12.2"/>
		<polygon class="st0" points="37.3,22.8 35.5,22.8 35.5,34.9 43.2,34.9 43.2,33.2 37.3,33.2 		"/>
		<polygon class="st0" points="49.8,28 46.2,22.8 44.1,22.8 49,29.8 49,34.9 50.7,34.9 50.7,29.8 55.6,22.8 53.5,22.8 		"/>
		<path class="st0" d="M98.3,26.2c0-2-1.4-3.4-3.4-3.4h-5.1v12.2h5.1c2,0,3.4-1.4,3.4-3.4c0-1.1-0.5-2.1-1.4-2.6
			C97.8,28.3,98.3,27.3,98.3,26.2z M94.9,33.2h-3.4v-3.5H95c0.9,0,1.6,0.7,1.6,1.8C96.6,32.5,95.9,33.2,94.9,33.2z M95,28h-3.4v-3.5
			h3.4c1,0,1.7,0.7,1.7,1.7C96.6,27.2,95.9,28,95,28z"/>
		<path class="st0" d="M111.9,29.4c0,2.2-1.6,3.8-3.8,3.8c-2.2,0-3.8-1.6-3.8-3.8v-6.6h-1.7v6.6c0,3.2,2.4,5.6,5.6,5.6
			c3.2,0,5.6-2.4,5.6-5.6v-6.6h-1.7V29.4z"/>
		<polygon class="st0" points="141.3,22.8 141.3,32.1 133.8,22.8 133.8,22.8 132.1,22.8 132.1,34.9 133.8,34.9 133.8,25.6 
			141.3,34.9 141.3,34.9 143,34.9 143,22.8 		"/>
		<path class="st0" d="M126.2,29.4L126.2,29.4c0.1-0.1,0.1-0.1,0.1-0.2l0-0.1c0,0,0.1-0.1,0.1-0.1c0,0,0,0,0,0l0,0
			c0,0,0-0.1,0.1-0.1l0,0c0.2-0.3,0.3-0.7,0.4-1.1l0,0c0-0.1,0-0.1,0-0.2l0,0c0-0.1,0-0.1,0-0.2c0-0.1,0-0.1,0-0.2l0-0.1
			c0,0,0-0.1,0-0.1c0-2.4-1.7-4.1-4.1-4.1h-4.7v12.2h1.7V31h3.2l3.1,3.9l0,0h2.3l-3.6-4.4C125.5,30.2,125.9,29.9,126.2,29.4z
			 M120,24.5h3c1.4,0,2.4,1,2.4,2.4c0,0.1,0,0.1,0,0.2l0.1,0l-0.1,0c0,0,0,0.1,0,0.1c0,0,0,0,0,0c-0.1,0.7-0.5,1.3-1.1,1.7l0,0
			c-0.4,0.2-0.8,0.3-1.2,0.3h-3V24.5z"/>
	</g>
	<linearGradient id="SVGID_1_" gradientUnits="userSpaceOnUse" x1="59.6392" y1="25" x2="83.1426" y2="25">
		<stop  offset="0" style="stop-color:#ED2924"/>
		<stop  offset="1" style="stop-color:#FCCC0F"/>
	</linearGradient>
	<path class="st1" d="M78.6,19.1c-0.7-0.8-1.9-0.8-2.7-0.1c-0.8,0.7-0.8,1.9-0.1,2.7c2.5,2.8,3.6,5,3.6,7.5c0,4.4-3.6,8-8,8l0,0
		c-4.4,0-8-3.6-8-8c0-3.7,2.8-7.3,5.8-11.1c0.4-0.5,0.7-1,1.1-1.4c0.1-0.1,0.1-0.2,0.2-0.3c1.9-2.3,0.8-6.1,0.4-7.2l-1.1,1.7
		c-1.1,1.7-2.4,3.4-3.6,5c-3.2,4.2-6.5,8.5-6.5,13.4c0,6.5,5.3,11.8,11.8,11.8l0,0c6.5,0,11.8-5.3,11.8-11.8
		C83.1,24.8,80.9,21.6,78.6,19.1z"/>
</g>
<rect class="st2" width="143" height="50"/>
</svg>
