<?xml version="1.0" encoding="utf-8"?>
<!-- Generator: Adobe Illustrator 19.2.0, SVG Export Plug-In . SVG Version: 6.00 Build 0)  -->
<svg version="1.1" id="Layer_3" xmlns="http://www.w3.org/2000/svg" xmlns:xlink="http://www.w3.org/1999/xlink" x="0px" y="0px"
	 viewBox="0 0 1477.5 1936.4" style="enable-background:new 0 0 1477.5 1936.4;" xml:space="preserve">
<style type="text/css">
	.st0{clip-path:url(#SVGID_6_);fill:#C69C6D;}
	.st1{clip-path:url(#SVGID_10_);fill:#A67C52;stroke:#A67C52;stroke-miterlimit:10;}
	.st2{fill:none;stroke:#000000;stroke-width:10;stroke-miterlimit:10;}
	.st3{clip-path:url(#SVGID_13_);fill:#C69C6D;stroke:#A67C52;stroke-miterlimit:10;}
	.st4{clip-path:url(#SVGID_15_);fill:#A67C52;stroke:#A67C52;stroke-miterlimit:10;}
	.st5{fill:#C69C6D;stroke:#000000;stroke-width:10;stroke-linejoin:round;stroke-miterlimit:10;}
	.st6{clip-path:url(#SVGID_17_);fill:#61BCE2;}
	.st7{clip-path:url(#SVGID_19_);fill:#2F9DCC;}
	.st8{clip-path:url(#SVGID_21_);fill:#2F9DCC;}
	.st9{fill:#2F9DCC;}
	.st10{clip-path:url(#SVGID_23_);fill:#2E3192;}
	.st11{clip-path:url(#SVGID_25_);}
	.st12{fill:none;stroke:#FFFFFF;stroke-width:40;}
	.st13{fill:#ED1C24;}
	.st14{clip-path:url(#SVGID_27_);}
	.st15{fill:none;stroke:#FFFFFF;stroke-width:47;}
	.st16{fill:none;stroke:#000000;stroke-width:10;stroke-linejoin:round;stroke-miterlimit:10;}
	.st17{clip-path:url(#SVGID_29_);fill:#C69C6D;}
	.st18{clip-path:url(#SVGID_31_);fill:#A67C52;}
	.st19{fill:#FFFFFF;stroke:#000000;stroke-width:10;stroke-miterlimit:10;}
	.st20{fill:#FFFFFF;}
	.st21{fill:#C69C6D;stroke:#000000;stroke-width:10;stroke-miterlimit:10;}
	.st22{clip-path:url(#SVGID_33_);fill:#C69C6D;}
	.st23{clip-path:url(#SVGID_35_);fill:#A67C52;}
	.st24{fill:#8C6239;stroke:#000000;stroke-width:10;stroke-linejoin:round;stroke-miterlimit:10;}
	.st25{fill:#FFFFFF;stroke:#000000;stroke-width:30;stroke-linejoin:round;stroke-miterlimit:10;}
	.st26{clip-path:url(#SVGID_39_);fill:#A67C52;}
	.st27{stroke:#000000;stroke-width:15;stroke-linecap:round;stroke-linejoin:round;stroke-miterlimit:10;}
</style>
<g>
	<g>
		<g>
			<defs>
				<path id="SVGID_4_" d="M259.5,1697.9c-31.3,59.3-80.6,131.8-64.6,182.7c9,28.5,194.9,90.1,219.4,19.7
					c36-103.3,81.8-174.4,81.8-174.4L259.5,1697.9z"/>
			</defs>
			<clipPath id="SVGID_6_">
				<use xlink:href="#SVGID_4_"  style="overflow:visible;"/>
			</clipPath>
			<path class="st0" d="M188,1872.3c-16.7-41.7,46.1-153.3,64.6-182.7s264.4-9.3,249.4,29.7s-63.8,169.6-97,190
				C340,1949.3,206,1917.3,188,1872.3z"/>
		</g>
		<g>
			<defs>
				<path id="SVGID_8_" d="M259.5,1697.9c-31.3,59.3-71.6,121.8-55.5,172.7c9,28.5,188.6,93.9,213.1,23.5
					c36-103.3,79-168.2,79-168.2L259.5,1697.9z"/>
			</defs>
			<clipPath id="SVGID_10_">
				<use xlink:href="#SVGID_8_"  style="overflow:visible;"/>
			</clipPath>
			<path class="st1" d="M239.3,1713.3c30,38.7,120.7,72.7,179.3,68.7c-16.7,49.3-27.3,133.3-103.3,144c36,14,95.3,18.7,122.7-23.3
				s80.7-169.3,80.7-169.3l-272-32.7L239.3,1713.3z"/>
		</g>
		<g>
			<path id="SVGID_1_" class="st2" d="M259.5,1697.9c-31.3,59.3-80.6,131.8-64.6,182.7c9,28.5,197.7,83.8,222.2,13.5
				c36-103.3,79-168.2,79-168.2L259.5,1697.9z"/>
		</g>
	</g>
	<g>
		<g>
			<defs>
				<path id="SVGID_12_" d="M934.8,1683.3c36,64.7,69.3,158.7,38,199.3c-29.7,33.2-230.5,72.1-228.3-20.3
					c-14.2-100.7-35.7-146.4-35.7-146.4L934.8,1683.3z"/>
			</defs>
			<clipPath id="SVGID_13_">
				<use xlink:href="#SVGID_12_"  style="overflow:visible;"/>
			</clipPath>
			<path class="st3" d="M715.8,1765.8c6.5,16.5-5.9,120.8,55,154.1c64.5,35.3,175.8,8.5,187.1-1.5c22-19.3,51.7-47.7,31.7-100.4
				s-51.3-132-51.3-132L715.8,1765.8z"/>
		</g>
		<g>
			<defs>
				<path id="SVGID_14_" d="M938.3,1689.6c34.4,63.8,64.4,152.3,35.2,192.1c-0.4,0.6-0.8,1.3-1.1,1.9
					c-20.8,43.9-213.1,76-224.2-24.4c-9.9-70.1-25-112-33.4-131.1c-2.7-6.2,1.2-13.3,8-14.3l205-29.6
					C932,1683.7,936.2,1685.8,938.3,1689.6z"/>
			</defs>
			<clipPath id="SVGID_15_">
				<use xlink:href="#SVGID_14_"  style="overflow:visible;"/>
			</clipPath>
			<path class="st4" d="M715,1779c146-22,196-64.7,196-64.7c26,50.7,62.7,150.7,12,190.7c38-1.3,72-28.7,67.3-93.3
				c-3.8-52.9-54-160-54-160l-246,50L715,1779z"/>
		</g>
		<g>
			<path id="SVGID_3_" class="st2" d="M934.8,1683.3c36,64.7,70,157.8,38.7,198.4c-18.2,23.7-215.3,69.8-225.5-2.7
				c-14.2-100.7-39.2-163.1-39.2-163.1L934.8,1683.3z"/>
		</g>
	</g>
	<path class="st5" d="M187.7,550c-65-34.1-147.9-5.7-167.2,67.8c-17,64.5,18.3,149.6,122.4,147.9C247,763.9,187.7,550,187.7,550z"/>
	<ellipse transform="matrix(0.1545 -0.988 0.988 0.1545 -531.7933 676.1291)" cx="129.1" cy="648.8" rx="57.8" ry="51.3"/>
	<path class="st5" d="M868.5,379c39-62.1,132-82.4,184-28.4c50.5,52.5,54.1,141.5-36.8,192.3C924.8,593.8,868.5,379,868.5,379z"/>
	<ellipse transform="matrix(0.7765 -0.6301 0.6301 0.7765 -50.0986 714.3065)" cx="981.9" cy="427.8" rx="48.7" ry="54.9"/>
	<g>
		<g>
			<defs>
				<path id="SVGID_16_" d="M179.5,1390.6c-7.3,92.9-66,296,136,348s446.1,19.1,532.1-12.9c112.5-42,173.3-81.5,221.9-353.1
					c58-324,14-594-18-720c-51.3-201.9-98-322-270-302s-459.9,104.2-530,134c-80,34-170,126-76,450
					C223.4,1099.6,187.5,1288.6,179.5,1390.6z"/>
			</defs>
			<clipPath id="SVGID_17_">
				<use xlink:href="#SVGID_16_"  style="overflow:visible;"/>
			</clipPath>
			<path class="st6" d="M119.5,522.6c-40.2,137.9,8,368-4,612c-12,244-20,564,104,624s664,24,736-44s172-360,164-664
				c-8-304-52-700-196-728S147.5,426.6,119.5,522.6z"/>
		</g>
		<g>
			<defs>
				<path id="SVGID_18_" d="M179.5,1390.6c-7.3,92.9-66,296,136,348s446.1,19.1,532.1-12.9c112.5-42,173.3-81.5,221.9-353.1
					c58-324,14-594-18-720c-51.3-201.9-98-322-270-302s-459.9,104.2-530,134c-80,34-170,126-76,450
					C223.4,1099.6,187.5,1288.6,179.5,1390.6z"/>
			</defs>
			<clipPath id="SVGID_19_">
				<use xlink:href="#SVGID_18_"  style="overflow:visible;"/>
			</clipPath>
			<path class="st7" d="M162.1,548.2c0,0,57,40.5,390-36c174-40,316.5-97.5,316.5-97.5c84,37.5,164.9,263.9,150.9,671.9
				c-14,408-50.4,425.6-116,490c-116,114-390,188-686,146c228,94,510,90,612,56s240-82,268-242s62-792,38-886s-178-346-272-356
				s-712,164-712,164L162.1,548.2z"/>
		</g>
		<g>
			<defs>
				<path id="SVGID_20_" d="M179.5,1390.6c-7.3,92.9-66,296,136,348s446.1,19.1,532.1-12.9c112.5-42,173.3-81.5,221.9-353.1
					c58-324,14-594-18-720c-51.3-201.9-98-322-270-302s-459.9,104.2-530,134c-80,34-170,126-76,450
					C223.4,1099.6,187.5,1288.6,179.5,1390.6z"/>
			</defs>
			<clipPath id="SVGID_21_">
				<use xlink:href="#SVGID_20_"  style="overflow:visible;"/>
			</clipPath>
			<path class="st8" d="M164.2,1415.9c0,0,111,128.3,314.3,183.7c99.3-52.8,234.3-210.3,234.3-210.3s146,126.7,210.7,145.3
				c54.8-44.4,156-198.7,156-198.7l11.1-54.3l-922.5,81L164.2,1415.9z"/>
		</g>
		<g>
			<path id="SVGID_5_" class="st2" d="M179.5,1390.6c-7.3,92.9-66,296,136,348s446.1,19.1,532.1-12.9
				c112.5-42,173.3-81.5,221.9-353.1c58-324,14-594-18-720c-51.3-201.9-98-322-270-302s-459.9,104.2-530,134c-80,34-170,126-76,450
				C223.4,1099.6,187.5,1288.6,179.5,1390.6z"/>
		</g>
	</g>
	<path class="st9" d="M545.9,895.3c8,28,20.3,38.8,45,36.8c6.7,40,28.6,66,60,64c104.7-6.7,99.7-56.8,99.7-56.8l-11.3-48.7
		c0,0,53.3-16,34-52S545.9,895.3,545.9,895.3S537.9,867.3,545.9,895.3z"/>
</g>
<g>
	<g>
		<defs>
			<path id="SVGID_22_" d="M166.2,949.9c22,193-13.7,435.7-13.7,435.7c89,112,320,184,320,184c112-67,232-201,232-201
				c88,79,217,142,217,142c84-77,173-213,173-213s26.1-355.7-20.6-557c-106,217-376.4,347-376.4,347
				C356.5,926.6,166.2,949.9,166.2,949.9z"/>
		</defs>
		<clipPath id="SVGID_23_">
			<use xlink:href="#SVGID_22_"  style="overflow:visible;"/>
		</clipPath>
		<path class="st10" d="M469.5,1579.2c-0.6-0.2-59.2-18.6-127.9-50.5c-92.8-43.1-159.1-89.2-197-136.8l-2.7-3.4l0.6-4.3
			c0.4-2.4,35.2-243.6,13.6-433.1l-1.1-9.9l9.8-1.2c0.4-0.1,10.4-1.3,29.6-1.3c63.1,0,237.8,13.5,502.4,137.5
			c16.7-10.1,78.1-48.6,147.6-107.4c74.5-63.1,173.9-163.3,223.8-282.2l12.4-29.5l6.6,31.3c25,118.2,28.3,277.8,26.7,390.8
			c-1.7,122.3-9.5,218.1-9.5,219l-0.2,2.5l-1.4,2.1c-3.7,5.6-90.7,137.9-174.6,214.9l-5,4.6l-6.1-3c-5.2-2.5-124.3-61.1-211.9-137
			c-27,29.2-129.4,136.8-227.6,195.6l-3.8,2.3L469.5,1579.2z"/>
	</g>
	<g>
		<defs>
			<path id="SVGID_24_" d="M166.2,949.9c22,193-13.7,435.7-13.7,435.7c89,112,320,184,320,184c112-67,232-201,232-201
				c88,79,217,142,217,142c84-77,173-213,173-213s26.1-355.7-20.6-557c-106,217-376.4,347-376.4,347
				C356.5,926.6,166.2,949.9,166.2,949.9z"/>
		</defs>
		<clipPath id="SVGID_25_">
			<use xlink:href="#SVGID_24_"  style="overflow:visible;"/>
		</clipPath>
		<g class="st11">
			<g>
				<path class="st12" d="M254.5,928.6c145.7,146.7,294.3,234,438.3,317.3c135.8,78.6,277.7,152.3,342.7,163.3
					c44-28,33-29.3,22-36.7c-83-23-177.3-61.3-338-156.7c-146.9-87.2-263-164.3-364.7-263.3c-27.6-29.6-55.8-17-55.8-17L254.5,928.6
					z"/>
				<path class="st12" d="M243.5,1485.9c355-129.3,688.9-344.8,824.9-748.8c4.3-5.5,7-13,14.2-9.2c5.1,2.7,1.7,16.6-0.2,24.2
					c-44.2,294.3-396.5,625.6-786.9,765.2C228,1517.3,243.5,1485.9,243.5,1485.9z"/>
			</g>
			<g>
				<path class="st13" d="M254.5,928.6c145.7,146.7,294.3,234,438.3,317.3c135.8,78.6,277.7,152.3,342.7,163.3
					c44-28,33-29.3,22-36.7c-83-23-177.3-61.3-338-156.7c-146.9-87.2-263-164.3-364.7-263.3c-27.6-29.6-55.8-17-55.8-17L254.5,928.6
					z"/>
				<path class="st13" d="M243.5,1485.9c355-129.3,688.9-344.8,824.9-748.8c4.3-5.5,7-13,14.2-9.2c5.1,2.7,1.7,16.6-0.2,24.2
					c-44.2,294.3-396.5,625.6-786.9,765.2C228,1517.3,243.5,1485.9,243.5,1485.9z"/>
			</g>
		</g>
	</g>
	<g>
		<defs>
			<path id="SVGID_26_" d="M166.2,949.9c22,193-13.7,435.7-13.7,435.7c89,112,320,184,320,184c112-67,232-201,232-201
				c88,79,217,142,217,142c84-77,173-213,173-213s26.1-355.7-20.6-557c-106,217-376.4,347-376.4,347
				C356.5,926.6,166.2,949.9,166.2,949.9z"/>
		</defs>
		<clipPath id="SVGID_27_">
			<use xlink:href="#SVGID_26_"  style="overflow:visible;"/>
		</clipPath>
		<g class="st14">
			<g>
				<path class="st15" d="M161.5,1099.6c69,62,256,118,544,92c261.2-23.6,381-144,422-209s26.7,119.3-1,147c-36,36-183,146-416,165
					s-445,15-556-69C109.5,1158.6,161.5,1099.6,161.5,1099.6z"/>
				<path class="st15" d="M643.5,1047.6c31,213-8,423-8,423l152-10c0,0,34-209,4-453C722.5,1029.6,643.5,1047.6,643.5,1047.6z"/>
			</g>
			<g>
				<path class="st13" d="M161.5,1099.6c69,62,256,118,544,92c261.2-23.6,381-144,422-209s26.7,119.3-1,147c-36,36-183,146-416,165
					s-445,15-556-69C109.5,1158.6,161.5,1099.6,161.5,1099.6z"/>
				<path class="st13" d="M643.5,1047.6c31,213-8,423-8,423l152-10c0,0,34-209,4-453C722.5,1029.6,643.5,1047.6,643.5,1047.6z"/>
			</g>
		</g>
	</g>
	<g>
		<path id="SVGID_7_" class="st16" d="M166.2,949.9c22,193-13.7,435.7-13.7,435.7c89,112,320,184,320,184c112-67,232-201,232-201
			c88,79,217,142,217,142c84-77,173-213,173-213s26.1-355.7-20.6-557c-106,217-376.4,347-376.4,347
			C356.5,926.6,166.2,949.9,166.2,949.9z"/>
	</g>
</g>
<g>
	<g>
		<defs>
			<path id="SVGID_28_" d="M178.8,1009.9c-50,7.3-137.3,102.7-162,168.7c-18.4,49.3,45.5,158.7,144.8,126c43-65,57.9-89,111.9-162.7
				C312.5,1088.7,244.5,1000.3,178.8,1009.9z"/>
		</defs>
		<clipPath id="SVGID_29_">
			<use xlink:href="#SVGID_28_"  style="overflow:visible;"/>
		</clipPath>
		<path class="st17" d="M115.6,1339.3c-20.2,0-39.6-9-51.9-23.9c-8.6-10.6-43.4-46.5-52.1-59.1c-13.8-19.9-15.4-51-4.1-81.2
			c12.3-32.9,39.8-73.9,73.6-109.7c16.9-17.9,60.1-60,96.3-65.4c3.8-0.6,7.6-0.8,11.5-0.8c36.9,0,76,26.4,95.2,64.3
			c15.4,30.4,14.5,61.1-2.5,84.3c-46,62.8-63.3,88.9-94.5,136.4c-5.2,8-10.9,16.5-17.1,25.9C157.7,1328.7,137.9,1339.3,115.6,1339.3
			C115.6,1339.3,115.6,1339.3,115.6,1339.3z"/>
	</g>
	<g>
		<defs>
			<path id="SVGID_30_" d="M178.8,1009.9c-50,7.3-137.3,102.7-162,168.7c-18.4,49.3,65,155.7,144.8,126c43-65,57.9-89,111.9-162.7
				C312.5,1088.7,244.5,1000.3,178.8,1009.9z"/>
		</defs>
		<clipPath id="SVGID_31_">
			<use xlink:href="#SVGID_30_"  style="overflow:visible;"/>
		</clipPath>
		<path class="st18" d="M82.2,1310.7c30-3.2,30-3.2,54.2-44.6c54-92.5,87.7-128.4,101.5-158.5c18.9-41.3,20-44.5,16-68
			c18,16.7,60.7,61.7,26.7,105.7S177.1,1293,159.4,1321.6C151.9,1333.9,69.5,1340.2,82.2,1310.7z"/>
	</g>
	<g>
		<path id="SVGID_9_" class="st2" d="M178.8,1009.9c-50,7.3-137.3,102.7-162,168.7c-20.7,55.3,35.7,158.1,144.8,126
			c43-65,57.9-89,111.9-162.7C312.5,1088.7,244.5,1000.3,178.8,1009.9z"/>
	</g>
</g>
<ellipse class="st19" cx="423.1" cy="664.7" rx="145.5" ry="129"/>
<ellipse cx="477.1" cy="660.2" rx="47" ry="48.9"/>
<circle class="st20" cx="490" cy="636.1" r="13.6"/>
<ellipse class="st19" cx="775.1" cy="585.3" rx="145.5" ry="135.6"/>
<ellipse cx="829.1" cy="574.2" rx="47" ry="48.9"/>
<path class="st19" d="M605.6,897.9c6.5,63.2,15.1,82.9,30,87.2c14.9,4.3,110.4-14.4,119.8-34.2c9.5-19.8-24.9-90.6-24.9-90.6
	s-40.9-3-78.1,3.2C615.2,869.6,605.6,897.9,605.6,897.9z"/>
<circle class="st20" cx="842" cy="550.1" r="13.6"/>
<path d="M676.6,900.9c2.7-0.7,10.6,21.6,14.8,38.2c4.3,16.6,4.4,25.9,1.7,26.6s-7.1-7.5-11.4-24.1C677.5,925,674,901.6,676.6,900.9z
	"/>
<path class="st21" d="M639.5,774.6c-89.8,19.9-126.6,95.9-88.9,136.2c33.8,36.1,91.7-22.4,125.9-28.3c34.1-5.9,97.5,1.4,102.5-42.5
	C784.2,794,728.5,754.9,639.5,774.6z"/>
<path d="M599.7,784.8c-3.4,18.4,28.8,44.7,55.6,41.3c26.8-3.4,42.5-50.5,31.4-60.8C675.6,755,603.5,764.2,599.7,784.8z"/>
<g>
	<g>
		<defs>
			<path id="SVGID_32_" d="M1087.2,913.9c-41.1,0-73,180-4,192s172,17,172,17l17-200C1272.2,922.9,1145.2,913.9,1087.2,913.9z"/>
		</defs>
		<clipPath id="SVGID_33_">
			<use xlink:href="#SVGID_32_"  style="overflow:visible;"/>
		</clipPath>
		<path class="st22" d="M1079.9,905.1c27.6,0,150.5,11,164.5,11.5s-5.5,211.5-38,208.5s-114.5-14-133.5-17.5s-37.5-37.5-32.5-98
			S1067.4,905.1,1079.9,905.1z"/>
	</g>
	<g>
		<defs>
			<path id="SVGID_34_" d="M1087.2,913.9c-41.1,0-73,180-4,192s172,17,172,17l17-200C1272.2,922.9,1145.2,913.9,1087.2,913.9z"/>
		</defs>
		<clipPath id="SVGID_35_">
			<use xlink:href="#SVGID_34_"  style="overflow:visible;"/>
		</clipPath>
		<path class="st23" d="M1117.3,912.6c-23,11.7-49.8,47.5-44.8,131.5c42,20.3,107,27.5,134.5,27c16.9-0.3,13.4,23.5,8.2,41.8
			c-3.5,12.2-15.1,20.2-27.7,19c-36-3.3-108.5-11-124.5-21.8c-21.5-14.5-38-69-35-101.5s15.5-99,38-104.5S1117.3,912.6,1117.3,912.6
			z"/>
	</g>
	<g>
		<path id="SVGID_11_" class="st2" d="M1087.2,913.9c-41.1,0-73,180-4,192s172,17,172,17l17-200
			C1272.2,922.9,1145.2,913.9,1087.2,913.9z"/>
	</g>
</g>
<path class="st24" d="M1140.1,1920.2c-0.8,0-1.6,0-2.5-0.2c-11-1.3-18.8-11.3-17.4-22.3c0.6-4.9,61-498.2,99.3-802.6
	c1.4-11,11.4-18.7,22.3-17.3c11,1.4,18.7,11.4,17.3,22.3c-38.3,304.4-98.7,797.6-99.3,802.5
	C1158.7,1912.7,1150.1,1920.2,1140.1,1920.2z"/>
<g>
	<path d="M256.6,496.7c0,0-39-145.5-58.5-238.5c-19.5-93,63-186,207-225c144-39,279-39,319.5,79.5c31.6,92.5,69,216,69,216
		s-129,61.5-280.5,106.5S256.6,496.7,256.6,496.7z"/>
	<polygon class="st25" points="235.5,385.1 757.5,233.6 790,347.1 524,434.1 265,496.1 	"/>
	<path d="M103,431.1c98,20,206,26,424.7-34.7c276.6-76.8,296.1-121.9,357.4-183.2c46.8-46.8,56,67.5,24,106.5
		c-26.9,32.8-187.4,87.7-365.4,136.7c-172.8,47.6-371,90.6-410.7,65.7C88.5,494.1,47.9,419.9,103,431.1z"/>
	<path class="st20" d="M264.3,318.1c33.7-2.7,13.5-56.9,49.3-124.3c33.3-62.7,91.9-92.3,67-109.3c-29.3-20-131.7,37.2-152.2,115.7
		C218.3,239.1,239.8,320.1,264.3,318.1z"/>
</g>
<path d="M704.5,1351.6c-2.1-0.1-3.4-12.5-4.4-32.6c-1-20-1.8-47.7-2.3-78.3c-1-61.2-0.4-110.9,3.8-111.1
	c4.1-0.2,10.2,49.3,11.2,110.8c0.5,30.8-0.4,58.6-2,78.7C709,1339.3,706.6,1351.7,704.5,1351.6z"/>
<circle class="st16" cx="760.2" cy="1159.3" r="28.7"/>
<circle class="st16" cx="759.5" cy="1302.6" r="28.7"/>
<g>
	<g>
		<defs>
			<path id="SVGID_36_" d="M1274.5,912.6c-75.2-3.5-88,67-66,107c-32,50-37.1,112,32,117C1337.5,1143.6,1380.5,917.6,1274.5,912.6z"
				/>
		</defs>
		<clipPath id="SVGID_37_">
			<use xlink:href="#SVGID_36_"  style="overflow:visible;"/>
		</clipPath>
	</g>
	<g>
		<defs>
			<path id="SVGID_38_" d="M1274.5,912.6c-75.2-3.5-88,67-66,107c-32,50-37.1,112,32,117C1337.5,1143.6,1380.5,917.6,1274.5,912.6z"
				/>
		</defs>
		<clipPath id="SVGID_39_">
			<use xlink:href="#SVGID_38_"  style="overflow:visible;"/>
		</clipPath>
		<path class="st26" d="M1207.9,1128.6c56-10,82-110.6,80.5-208.6c31.4,3.5,61.6,68.3,50.5,113.1
			C1314.9,1130.1,1262.9,1161.6,1207.9,1128.6z"/>
	</g>
	<g>
		<path id="SVGID_2_" class="st2" d="M1240.5,1136.6c97,7,140-219,34-224"/>
	</g>
</g>
<path class="st24" d="M1201.9,1746c-3.6-0.4-43,23.6-43.6-23.3c-2-169.9,49.6-615.9,51.3-628.8c15.8-125.5,25.8-202.9,29.8-230
	c7.1-48.2,35.7-84.6,78.7-100c41.9-15,89.2-6.3,120.3,22.1c14.6,13.3,25.1,30.6,30.2,50c5.4,20.4,5.1,42.8-1,66.6
	c-4.1,16.1-20.5,25.7-36.5,21.6s-25.7-20.5-21.6-36.5c4.4-17.4,6.1-41.4-11.5-57.4c-14.7-13.4-38.8-17.4-59.7-9.9
	c-12.6,4.5-34.4,17.2-39.5,52.2c-3.9,26.7-13.9,103.6-29.6,228.8C1267.2,1116.5,1203.2,1746.1,1201.9,1746z"/>
<path class="st27" d="M1114,1773c-2.4,23.2,12,37.8,34.1,40.3c23.7,2.6,40.3-1.1,46.3-31.1c6-30,125.7-597.9,125.7-597.9
	c-18.6,28-49.3,25.4-54-11.2c-19.3,34.7-63.9,30.8-72-7.9c-16.6,38-48,29.4-54.7,4.8C1138.9,1281.3,1118,1734.3,1114,1773z"/>
</svg>
